<svg width="468" height="12" viewBox="0 0 468 12" fill="none" xmlns="http://www.w3.org/2000/svg">
<path d="M468 6L458 0.226497V11.7735L468 6ZM0.5 7C1.05228 7 1.5 6.55228 1.5 6C1.5 5.44772 1.05228 5 0.5 5V7ZM5.5 5C4.94772 5 4.5 5.44772 4.5 6C4.5 6.55228 4.94772 7 5.5 7V5ZM6.5 7C7.05229 7 7.5 6.55228 7.5 6C7.5 5.44772 7.05229 5 6.5 5V7ZM11.5 5C10.9477 5 10.5 5.44772 10.5 6C10.5 6.55228 10.9477 7 11.5 7V5ZM12.5 7C13.0523 7 13.5 6.55228 13.5 6C13.5 5.44772 13.0523 5 12.5 5V7ZM17.5 5C16.9477 5 16.5 5.44772 16.5 6C16.5 6.55228 16.9477 7 17.5 7V5ZM18.5 7C19.0523 7 19.5 6.55228 19.5 6C19.5 5.44772 19.0523 5 18.5 5V7ZM23.5 5C22.9477 5 22.5 5.44772 22.5 6C22.5 6.55228 22.9477 7 23.5 7V5ZM24.5 7C25.0523 7 25.5 6.55228 25.5 6C25.5 5.44772 25.0523 5 24.5 5V7ZM29.5 5C28.9477 5 28.5 5.44772 28.5 6C28.5 6.55228 28.9477 7 29.5 7V5ZM30.5 7C31.0523 7 31.5 6.55228 31.5 6C31.5 5.44772 31.0523 5 30.5 5V7ZM35.5 5C34.9477 5 34.5 5.44772 34.5 6C34.5 6.55228 34.9477 7 35.5 7V5ZM36.5 7C37.0523 7 37.5 6.55228 37.5 6C37.5 5.44772 37.0523 5 36.5 5V7ZM41.5 5C40.9477 5 40.5 5.44772 40.5 6C40.5 6.55228 40.9477 7 41.5 7V5ZM42.5 7C43.0523 7 43.5 6.55228 43.5 6C43.5 5.44772 43.0523 5 42.5 5V7ZM47.5 5C46.9477 5 46.5 5.44772 46.5 6C46.5 6.55228 46.9477 7 47.5 7V5ZM48.5 7C49.0523 7 49.5 6.55228 49.5 6C49.5 5.44772 49.0523 5 48.5 5V7ZM53.5 5C52.9477 5 52.5 5.44772 52.5 6C52.5 6.55228 52.9477 7 53.5 7V5ZM54.5 7C55.0523 7 55.5 6.55228 55.5 6C55.5 5.44772 55.0523 5 54.5 5V7ZM59.5 5C58.9477 5 58.5 5.44772 58.5 6C58.5 6.55228 58.9477 7 59.5 7V5ZM60.5 7C61.0523 7 61.5 6.55228 61.5 6C61.5 5.44772 61.0523 5 60.5 5V7ZM65.5 5C64.9477 5 64.5 5.44772 64.5 6C64.5 6.55228 64.9477 7 65.5 7V5ZM66.5 7C67.0523 7 67.5 6.55228 67.5 6C67.5 5.44772 67.0523 5 66.5 5V7ZM71.5 5C70.9477 5 70.5 5.44772 70.5 6C70.5 6.55228 70.9477 7 71.5 7V5ZM72.5 7C73.0523 7 73.5 6.55228 73.5 6C73.5 5.44772 73.0523 5 72.5 5V7ZM77.5 5C76.9477 5 76.5 5.44772 76.5 6C76.5 6.55228 76.9477 7 77.5 7V5ZM78.5 7C79.0523 7 79.5 6.55228 79.5 6C79.5 5.44772 79.0523 5 78.5 5V7ZM83.5 5C82.9477 5 82.5 5.44772 82.5 6C82.5 6.55228 82.9477 7 83.5 7V5ZM84.5 7C85.0523 7 85.5 6.55228 85.5 6C85.5 5.44772 85.0523 5 84.5 5V7ZM89.5 5C88.9477 5 88.5 5.44772 88.5 6C88.5 6.55228 88.9477 7 89.5 7V5ZM90.5 7C91.0523 7 91.5 6.55228 91.5 6C91.5 5.44772 91.0523 5 90.5 5V7ZM95.5 5C94.9477 5 94.5 5.44772 94.5 6C94.5 6.55228 94.9477 7 95.5 7V5ZM96.5 7C97.0523 7 97.5 6.55228 97.5 6C97.5 5.44772 97.0523 5 96.5 5V7ZM101.5 5C100.948 5 100.5 5.44772 100.5 6C100.5 6.55228 100.948 7 101.5 7V5ZM102.5 7C103.052 7 103.5 6.55228 103.5 6C103.5 5.44772 103.052 5 102.5 5V7ZM107.5 5C106.948 5 106.5 5.44772 106.5 6C106.5 6.55228 106.948 7 107.5 7V5ZM108.5 7C109.052 7 109.5 6.55228 109.5 6C109.5 5.44772 109.052 5 108.5 5V7ZM113.5 5C112.948 5 112.5 5.44772 112.5 6C112.5 6.55228 112.948 7 113.5 7V5ZM114.5 7C115.052 7 115.5 6.55228 115.5 6C115.5 5.44772 115.052 5 114.5 5V7ZM119.5 5C118.948 5 118.5 5.44772 118.5 6C118.5 6.55228 118.948 7 119.5 7V5ZM120.5 7C121.052 7 121.5 6.55228 121.5 6C121.5 5.44772 121.052 5 120.5 5V7ZM125.5 5C124.948 5 124.5 5.44772 124.5 6C124.5 6.55228 124.948 7 125.5 7V5ZM126.5 7C127.052 7 127.5 6.55228 127.5 6C127.5 5.44772 127.052 5 126.5 5V7ZM131.5 5C130.948 5 130.5 5.44772 130.5 6C130.5 6.55228 130.948 7 131.5 7V5ZM132.5 7C133.052 7 133.5 6.55228 133.5 6C133.5 5.44772 133.052 5 132.5 5V7ZM137.5 5C136.948 5 136.5 5.44772 136.5 6C136.5 6.55228 136.948 7 137.5 7V5ZM138.5 7C139.052 7 139.5 6.55228 139.5 6C139.5 5.44772 139.052 5 138.5 5V7ZM143.5 5C142.948 5 142.5 5.44772 142.5 6C142.5 6.55228 142.948 7 143.5 7V5ZM144.5 7C145.052 7 145.5 6.55228 145.5 6C145.5 5.44772 145.052 5 144.5 5V7ZM149.5 5C148.948 5 148.5 5.44772 148.5 6C148.5 6.55228 148.948 7 149.5 7V5ZM150.5 7C151.052 7 151.5 6.55228 151.5 6C151.5 5.44772 151.052 5 150.5 5V7ZM155.5 5C154.948 5 154.5 5.44772 154.5 6C154.5 6.55228 154.948 7 155.5 7V5ZM156.5 7C157.052 7 157.5 6.55228 157.5 6C157.5 5.44772 157.052 5 156.5 5V7ZM161.5 5C160.948 5 160.5 5.44772 160.5 6C160.5 6.55228 160.948 7 161.5 7V5ZM162.5 7C163.052 7 163.5 6.55228 163.5 6C163.5 5.44772 163.052 5 162.5 5V7ZM167.5 5C166.948 5 166.5 5.44772 166.5 6C166.5 6.55228 166.948 7 167.5 7V5ZM168.5 7C169.052 7 169.5 6.55228 169.5 6C169.5 5.44772 169.052 5 168.5 5V7ZM173.5 5C172.948 5 172.5 5.44772 172.5 6C172.5 6.55228 172.948 7 173.5 7V5ZM174.5 7C175.052 7 175.5 6.55228 175.5 6C175.5 5.44772 175.052 5 174.5 5V7ZM179.5 5C178.948 5 178.5 5.44772 178.5 6C178.5 6.55228 178.948 7 179.5 7V5ZM180.5 7C181.052 7 181.5 6.55228 181.5 6C181.5 5.44772 181.052 5 180.5 5V7ZM185.5 5C184.948 5 184.5 5.44772 184.5 6C184.5 6.55228 184.948 7 185.5 7V5ZM186.5 7C187.052 7 187.5 6.55228 187.5 6C187.5 5.44772 187.052 5 186.5 5V7ZM191.5 5C190.948 5 190.5 5.44772 190.5 6C190.5 6.55228 190.948 7 191.5 7V5ZM192.5 7C193.052 7 193.5 6.55228 193.5 6C193.5 5.44772 193.052 5 192.5 5V7ZM197.5 5C196.948 5 196.5 5.44772 196.5 6C196.5 6.55228 196.948 7 197.5 7V5ZM198.5 7C199.052 7 199.5 6.55228 199.5 6C199.5 5.44772 199.052 5 198.5 5V7ZM203.5 5C202.948 5 202.5 5.44772 202.5 6C202.5 6.55228 202.948 7 203.5 7V5ZM204.5 7C205.052 7 205.5 6.55228 205.5 6C205.5 5.44772 205.052 5 204.5 5V7ZM209.5 5C208.948 5 208.5 5.44772 208.5 6C208.5 6.55228 208.948 7 209.5 7V5ZM210.5 7C211.052 7 211.5 6.55228 211.5 6C211.5 5.44772 211.052 5 210.5 5V7ZM215.5 5C214.948 5 214.5 5.44772 214.5 6C214.5 6.55228 214.948 7 215.5 7V5ZM216.5 7C217.052 7 217.5 6.55228 217.5 6C217.5 5.44772 217.052 5 216.5 5V7ZM221.5 5C220.948 5 220.5 5.44772 220.5 6C220.5 6.55228 220.948 7 221.5 7V5ZM222.5 7C223.052 7 223.5 6.55228 223.5 6C223.5 5.44772 223.052 5 222.5 5V7ZM227.5 5C226.948 5 226.5 5.44772 226.5 6C226.5 6.55228 226.948 7 227.5 7V5ZM228.5 7C229.052 7 229.5 6.55228 229.5 6C229.5 5.44772 229.052 5 228.5 5V7ZM233.5 5C232.948 5 232.5 5.44772 232.5 6C232.5 6.55228 232.948 7 233.5 7V5ZM234.5 7C235.052 7 235.5 6.55228 235.5 6C235.5 5.44772 235.052 5 234.5 5V7ZM239.5 5C238.948 5 238.5 5.44772 238.5 6C238.5 6.55228 238.948 7 239.5 7V5ZM240.5 7C241.052 7 241.5 6.55228 241.5 6C241.5 5.44772 241.052 5 240.5 5V7ZM245.5 5C244.948 5 244.5 5.44772 244.5 6C244.5 6.55228 244.948 7 245.5 7V5ZM246.5 7C247.052 7 247.5 6.55228 247.5 6C247.5 5.44772 247.052 5 246.5 5V7ZM251.5 5C250.948 5 250.5 5.44772 250.5 6C250.5 6.55228 250.948 7 251.5 7V5ZM252.5 7C253.052 7 253.5 6.55228 253.5 6C253.5 5.44772 253.052 5 252.5 5V7ZM257.5 5C256.948 5 256.5 5.44772 256.5 6C256.5 6.55228 256.948 7 257.5 7V5ZM258.5 7C259.052 7 259.5 6.55228 259.5 6C259.5 5.44772 259.052 5 258.5 5V7ZM263.5 5C262.948 5 262.5 5.44772 262.5 6C262.5 6.55228 262.948 7 263.5 7V5ZM264.5 7C265.052 7 265.5 6.55228 265.5 6C265.5 5.44772 265.052 5 264.5 5V7ZM269.5 5C268.948 5 268.5 5.44772 268.5 6C268.5 6.55228 268.948 7 269.5 7V5ZM270.5 7C271.052 7 271.5 6.55228 271.5 6C271.5 5.44772 271.052 5 270.5 5V7ZM275.5 5C274.948 5 274.5 5.44772 274.5 6C274.5 6.55228 274.948 7 275.5 7V5ZM276.5 7C277.052 7 277.5 6.55228 277.5 6C277.5 5.44772 277.052 5 276.5 5V7ZM281.5 5C280.948 5 280.5 5.44772 280.5 6C280.5 6.55228 280.948 7 281.5 7V5ZM282.5 7C283.052 7 283.5 6.55228 283.5 6C283.5 5.44772 283.052 5 282.5 5V7ZM287.5 5C286.948 5 286.5 5.44772 286.5 6C286.5 6.55228 286.948 7 287.5 7V5ZM288.5 7C289.052 7 289.5 6.55228 289.5 6C289.5 5.44772 289.052 5 288.5 5V7ZM293.5 5C292.948 5 292.5 5.44772 292.5 6C292.5 6.55228 292.948 7 293.5 7V5ZM294.5 7C295.052 7 295.5 6.55228 295.5 6C295.5 5.44772 295.052 5 294.5 5V7ZM299.5 5C298.948 5 298.5 5.44772 298.5 6C298.5 6.55228 298.948 7 299.5 7V5ZM300.5 7C301.052 7 301.5 6.55228 301.5 6C301.5 5.44772 301.052 5 300.5 5V7ZM305.5 5C304.948 5 304.5 5.44772 304.5 6C304.5 6.55228 304.948 7 305.5 7V5ZM306.5 7C307.052 7 307.5 6.55228 307.5 6C307.5 5.44772 307.052 5 306.5 5V7ZM311.5 5C310.948 5 310.5 5.44772 310.5 6C310.5 6.55228 310.948 7 311.5 7V5ZM312.5 7C313.052 7 313.5 6.55228 313.5 6C313.5 5.44772 313.052 5 312.5 5V7ZM317.5 5C316.948 5 316.5 5.44772 316.5 6C316.5 6.55228 316.948 7 317.5 7V5ZM318.5 7C319.052 7 319.5 6.55228 319.5 6C319.5 5.44772 319.052 5 318.5 5V7ZM323.5 5C322.948 5 322.5 5.44772 322.5 6C322.5 6.55228 322.948 7 323.5 7V5ZM324.5 7C325.052 7 325.5 6.55228 325.5 6C325.5 5.44772 325.052 5 324.5 5V7ZM329.5 5C328.948 5 328.5 5.44772 328.5 6C328.5 6.55228 328.948 7 329.5 7V5ZM330.5 7C331.052 7 331.5 6.55228 331.5 6C331.5 5.44772 331.052 5 330.5 5V7ZM335.5 5C334.948 5 334.5 5.44772 334.5 6C334.5 6.55228 334.948 7 335.5 7V5ZM336.5 7C337.052 7 337.5 6.55228 337.5 6C337.5 5.44772 337.052 5 336.5 5V7ZM341.5 5C340.948 5 340.5 5.44772 340.5 6C340.5 6.55228 340.948 7 341.5 7V5ZM342.5 7C343.052 7 343.5 6.55228 343.5 6C343.5 5.44772 343.052 5 342.5 5V7ZM347.5 5C346.948 5 346.5 5.44772 346.5 6C346.5 6.55228 346.948 7 347.5 7V5ZM348.5 7C349.052 7 349.5 6.55228 349.5 6C349.5 5.44772 349.052 5 348.5 5V7ZM353.5 5C352.948 5 352.5 5.44772 352.5 6C352.5 6.55228 352.948 7 353.5 7V5ZM354.5 7C355.052 7 355.5 6.55228 355.5 6C355.5 5.44772 355.052 5 354.5 5V7ZM359.5 5C358.948 5 358.5 5.44772 358.5 6C358.5 6.55228 358.948 7 359.5 7V5ZM360.5 7C361.052 7 361.5 6.55228 361.5 6C361.5 5.44772 361.052 5 360.5 5V7ZM365.5 5C364.948 5 364.5 5.44772 364.5 6C364.5 6.55228 364.948 7 365.5 7V5ZM366.5 7C367.052 7 367.5 6.55228 367.5 6C367.5 5.44772 367.052 5 366.5 5V7ZM371.5 5C370.948 5 370.5 5.44772 370.5 6C370.5 6.55228 370.948 7 371.5 7V5ZM372.5 7C373.052 7 373.5 6.55228 373.5 6C373.5 5.44772 373.052 5 372.5 5V7ZM377.5 5C376.948 5 376.5 5.44772 376.5 6C376.5 6.55228 376.948 7 377.5 7V5ZM378.5 7C379.052 7 379.5 6.55228 379.5 6C379.5 5.44772 379.052 5 378.5 5V7ZM383.5 5C382.948 5 382.5 5.44772 382.5 6C382.5 6.55228 382.948 7 383.5 7V5ZM384.5 7C385.052 7 385.5 6.55228 385.5 6C385.5 5.44772 385.052 5 384.5 5V7ZM389.5 5C388.948 5 388.5 5.44772 388.5 6C388.5 6.55228 388.948 7 389.5 7V5ZM390.5 7C391.052 7 391.5 6.55228 391.5 6C391.5 5.44772 391.052 5 390.5 5V7ZM395.5 5C394.948 5 394.5 5.44772 394.5 6C394.5 6.55228 394.948 7 395.5 7V5ZM396.5 7C397.052 7 397.5 6.55228 397.5 6C397.5 5.44772 397.052 5 396.5 5V7ZM401.5 5C400.948 5 400.5 5.44772 400.5 6C400.5 6.55228 400.948 7 401.5 7V5ZM402.5 7C403.052 7 403.5 6.55228 403.5 6C403.5 5.44772 403.052 5 402.5 5V7ZM407.5 5C406.948 5 406.5 5.44772 406.5 6C406.5 6.55228 406.948 7 407.5 7V5ZM408.5 7C409.052 7 409.5 6.55228 409.5 6C409.5 5.44772 409.052 5 408.5 5V7ZM413.5 5C412.948 5 412.5 5.44772 412.5 6C412.5 6.55228 412.948 7 413.5 7V5ZM414.5 7C415.052 7 415.5 6.55228 415.5 6C415.5 5.44772 415.052 5 414.5 5V7ZM419.5 5C418.948 5 418.5 5.44772 418.5 6C418.5 6.55228 418.948 7 419.5 7V5ZM420.5 7C421.052 7 421.5 6.55228 421.5 6C421.5 5.44772 421.052 5 420.5 5V7ZM425.5 5C424.948 5 424.5 5.44772 424.5 6C424.5 6.55228 424.948 7 425.5 7V5ZM426.5 7C427.052 7 427.5 6.55228 427.5 6C427.5 5.44772 427.052 5 426.5 5V7ZM431.5 5C430.948 5 430.5 5.44772 430.5 6C430.5 6.55228 430.948 7 431.5 7V5ZM432.5 7C433.052 7 433.5 6.55228 433.5 6C433.5 5.44772 433.052 5 432.5 5V7ZM437.5 5C436.948 5 436.5 5.44772 436.5 6C436.5 6.55228 436.948 7 437.5 7V5ZM438.5 7C439.052 7 439.5 6.55228 439.5 6C439.5 5.44772 439.052 5 438.5 5V7ZM443.5 5C442.948 5 442.5 5.44772 442.5 6C442.5 6.55228 442.948 7 443.5 7V5ZM444.5 7C445.052 7 445.5 6.55228 445.5 6C445.5 5.44772 445.052 5 444.5 5V7ZM449.5 5C448.948 5 448.5 5.44772 448.5 6C448.5 6.55228 448.948 7 449.5 7V5ZM450.5 7C451.052 7 451.5 6.55228 451.5 6C451.5 5.44772 451.052 5 450.5 5V7ZM455.5 5C454.948 5 454.5 5.44772 454.5 6C454.5 6.55228 454.948 7 455.5 7V5ZM456.5 7C457.052 7 457.5 6.55228 457.5 6C457.5 5.44772 457.052 5 456.5 5V7ZM461.5 5C460.948 5 460.5 5.44772 460.5 6C460.5 6.55228 460.948 7 461.5 7V5ZM462.5 7C463.052 7 463.5 6.55228 463.5 6C463.5 5.44772 463.052 5 462.5 5V7ZM467.5 5C466.948 5 466.5 5.44772 466.5 6C466.5 6.55228 466.948 7 467.5 7V5ZM0 7H0.5V5H0L0 7ZM5.5 7H6.5V5H5.5V7ZM11.5 7H12.5V5H11.5V7ZM17.5 7H18.5V5H17.5V7ZM23.5 7H24.5V5H23.5V7ZM29.5 7H30.5V5H29.5V7ZM35.5 7H36.5V5H35.5V7ZM41.5 7H42.5V5H41.5V7ZM47.5 7H48.5V5H47.5V7ZM53.5 7H54.5V5H53.5V7ZM59.5 7H60.5V5H59.5V7ZM65.5 7H66.5V5H65.5V7ZM71.5 7H72.5V5H71.5V7ZM77.5 7H78.5V5H77.5V7ZM83.5 7H84.5V5H83.5V7ZM89.5 7H90.5V5H89.5V7ZM95.5 7H96.5V5H95.5V7ZM101.5 7H102.5V5H101.5V7ZM107.5 7H108.5V5H107.5V7ZM113.5 7H114.5V5H113.5V7ZM119.5 7H120.5V5H119.5V7ZM125.5 7H126.5V5H125.5V7ZM131.5 7H132.5V5H131.5V7ZM137.5 7H138.5V5H137.5V7ZM143.5 7H144.5V5H143.5V7ZM149.5 7H150.5V5H149.5V7ZM155.5 7H156.5V5H155.5V7ZM161.5 7H162.5V5H161.5V7ZM167.5 7H168.5V5H167.5V7ZM173.5 7H174.5V5H173.5V7ZM179.5 7H180.5V5H179.5V7ZM185.5 7H186.5V5H185.5V7ZM191.5 7H192.5V5H191.5V7ZM197.5 7H198.5V5H197.5V7ZM203.5 7H204.5V5H203.5V7ZM209.5 7H210.5V5H209.5V7ZM215.5 7H216.5V5H215.5V7ZM221.5 7H222.5V5H221.5V7ZM227.5 7H228.5V5H227.5V7ZM233.5 7H234.5V5H233.5V7ZM239.5 7H240.5V5H239.5V7ZM245.5 7H246.5V5H245.5V7ZM251.5 7H252.5V5H251.5V7ZM257.5 7H258.5V5H257.5V7ZM263.5 7H264.5V5H263.5V7ZM269.5 7H270.5V5H269.5V7ZM275.5 7H276.5V5H275.5V7ZM281.5 7H282.5V5H281.5V7ZM287.5 7H288.5V5H287.5V7ZM293.5 7H294.5V5H293.5V7ZM299.5 7H300.5V5H299.5V7ZM305.5 7H306.5V5H305.5V7ZM311.5 7H312.5V5H311.5V7ZM317.5 7H318.5V5H317.5V7ZM323.5 7H324.5V5H323.5V7ZM329.5 7H330.5V5H329.5V7ZM335.5 7H336.5V5H335.5V7ZM341.5 7H342.5V5H341.5V7ZM347.5 7H348.5V5H347.5V7ZM353.5 7H354.5V5H353.5V7ZM359.5 7H360.5V5H359.5V7ZM365.5 7H366.5V5H365.5V7ZM371.5 7H372.5V5H371.5V7ZM377.5 7H378.5V5H377.5V7ZM383.5 7H384.5V5H383.5V7ZM389.5 7H390.5V5H389.5V7ZM395.5 7H396.5V5H395.5V7ZM401.5 7H402.5V5H401.5V7ZM407.5 7H408.5V5H407.5V7ZM413.5 7H414.5V5H413.5V7ZM419.5 7H420.5V5H419.5V7ZM425.5 7H426.5V5H425.5V7ZM431.5 7H432.5V5H431.5V7ZM437.5 7H438.5V5H437.5V7ZM443.5 7H444.5V5H443.5V7ZM449.5 7H450.5V5H449.5V7ZM455.5 7H456.5V5H455.5V7ZM461.5 7H462.5V5H461.5V7Z" fill="#FF0000"/>
</svg>
