<svg width="177" height="73" viewBox="0 0 177 73" fill="none" xmlns="http://www.w3.org/2000/svg">
<path d="M36.8633 22.1656C34.8846 22.0484 32.9029 22.3394 31.0414 23.0205C29.1799 23.7016 27.4784 24.7582 26.0425 26.1248C24.6067 27.4913 23.4672 29.1385 22.695 30.9641C21.9227 32.7896 21.5341 34.7545 21.5533 36.7366C21.5726 38.7187 21.9993 40.6756 22.8068 42.4858C23.6144 44.296 24.7856 45.9208 26.2477 47.2592C27.7099 48.5976 29.4316 49.621 31.306 50.2658C33.1803 50.9106 35.1673 51.1631 37.1433 51.0075L36.6388 44.6C35.5413 44.6864 34.4378 44.5462 33.3968 44.1881C32.3558 43.83 31.3996 43.2616 30.5876 42.5183C29.7755 41.7749 29.1251 40.8726 28.6765 39.8672C28.228 38.8618 27.9911 37.775 27.9804 36.6742C27.9697 35.5733 28.1855 34.4821 28.6144 33.4682C29.0433 32.4543 29.6761 31.5395 30.4736 30.7805C31.271 30.0216 32.216 29.4348 33.2499 29.0565C34.2837 28.6782 35.3843 28.5166 36.4832 28.5817L36.8633 22.1656Z" fill="black" fill-opacity="0.85"/>
<path d="M37.1431 9.7784C33.5558 9.63206 29.9764 10.2214 26.6254 11.5101C23.2743 12.7988 20.2224 14.7596 17.6575 17.2719C15.0926 19.7843 13.0689 22.7949 11.7111 26.1185C10.3532 29.4422 9.68982 33.0085 9.7618 36.5981C9.83378 40.1877 10.6396 43.7246 12.1296 46.9912C13.6196 50.2577 15.7623 53.1848 18.4259 55.5922C21.0895 57.9997 24.2175 59.8366 27.6176 60.9899C31.0176 62.1433 34.6177 62.5886 38.1963 62.2986L37.6795 55.9221C34.9709 56.1416 32.2461 55.8045 29.6726 54.9316C27.0992 54.0586 24.7317 52.6683 22.7157 50.8461C20.6997 49.024 19.0779 46.8085 17.9501 44.3362C16.8223 41.8638 16.2124 39.1868 16.158 36.4699C16.1035 33.753 16.6056 31.0536 17.6333 28.538C18.6611 26.0224 20.1927 23.7438 22.1341 21.8423C24.0754 19.9407 26.3853 18.4566 28.9217 17.4812C31.458 16.5058 34.1672 16.0598 36.8824 16.1705L37.1431 9.7784Z" fill="#FF0000"/>
<path d="M50.4797 31.7639C50.4797 29.6736 50.948 27.7986 51.8848 26.1387C52.8414 24.4788 54.1269 23.1878 55.7412 22.2656C57.3755 21.323 59.1593 20.8517 61.0925 20.8517C63.3047 20.8517 65.2679 21.4152 66.9819 22.5423C68.7158 23.6489 69.9714 25.2268 70.7487 27.276H66.653C66.1149 26.1489 65.3675 25.3088 64.4109 24.7555C63.4542 24.2022 62.3481 23.9255 61.0925 23.9255C59.7173 23.9255 58.4916 24.2431 57.4154 24.8784C56.3391 25.5137 55.4921 26.4256 54.8743 27.6142C54.2764 28.8027 53.9774 30.1859 53.9774 31.7639C53.9774 33.3418 54.2764 34.725 54.8743 35.9136C55.4921 37.1021 56.3391 38.0243 57.4154 38.6801C58.4916 39.3153 59.7173 39.6329 61.0925 39.6329C62.3481 39.6329 63.4542 39.3563 64.4109 38.803C65.3675 38.2497 66.1149 37.4095 66.653 36.2824H70.7487C69.9714 38.3317 68.7158 39.9096 66.9819 41.0162C65.2679 42.1228 63.3047 42.6761 61.0925 42.6761C59.1393 42.6761 57.3556 42.215 55.7412 41.2928C54.1269 40.3502 52.8414 39.0489 51.8848 37.389C50.948 35.7291 50.4797 33.8541 50.4797 31.7639Z" fill="black"/>
<path d="M78.1459 28.0138C78.6441 27.1531 79.3018 26.4871 80.119 26.0157C80.956 25.5239 81.9426 25.278 83.0786 25.278V28.9052H82.2116C80.8763 28.9052 79.8599 29.2535 79.1623 29.9503C78.4847 30.647 78.1459 31.8561 78.1459 33.5774V42.4916H74.7378V25.5547H78.1459V28.0138Z" fill="black"/>
<path d="M101.308 33.6082C101.308 34.2434 101.269 34.8172 101.189 35.3295H88.6029C88.7026 36.682 89.1908 37.7681 90.0678 38.5878C90.9447 39.4075 92.0209 39.8174 93.2965 39.8174C95.13 39.8174 96.4255 39.0284 97.1828 37.4505H100.86C100.362 39.0079 99.4549 40.2887 98.1395 41.2928C96.844 42.2765 95.2297 42.7683 93.2965 42.7683C91.722 42.7683 90.3069 42.4097 89.0513 41.6924C87.8157 40.9547 86.8391 39.9301 86.1216 38.6186C85.424 37.2866 85.0753 35.7496 85.0753 34.0078C85.0753 32.2659 85.4141 30.7392 86.0917 29.4277C86.7893 28.0957 87.7559 27.0711 88.9916 26.3539C90.2472 25.6366 91.6821 25.278 93.2965 25.278C94.851 25.278 96.2362 25.6264 97.4519 26.3231C98.6676 27.0199 99.6143 28.0035 100.292 29.274C100.97 30.5241 101.308 31.9688 101.308 33.6082ZM97.7509 32.5016C97.7309 31.2106 97.2825 30.1757 96.4056 29.397C95.5286 28.6183 94.4425 28.2289 93.147 28.2289C91.9711 28.2289 90.9646 28.6183 90.1276 29.397C89.2905 30.1552 88.7922 31.1901 88.6328 32.5016H97.7509Z" fill="black"/>
<path d="M103.526 33.9463C103.526 32.2454 103.865 30.7392 104.543 29.4277C105.24 28.1162 106.177 27.1018 107.353 26.3846C108.549 25.6469 109.864 25.278 111.299 25.278C112.594 25.278 113.721 25.5444 114.677 26.0772C115.654 26.5895 116.431 27.235 117.009 28.0138V25.5547H120.447V42.4916H117.009V39.9711C116.431 40.7703 115.644 41.4363 114.647 41.9691C113.651 42.5019 112.515 42.7683 111.239 42.7683C109.824 42.7683 108.529 42.3994 107.353 41.6617C106.177 40.9035 105.24 39.8584 104.543 38.5264C103.865 37.1739 103.526 35.6472 103.526 33.9463ZM117.009 34.0078C117.009 32.8397 116.77 31.8253 116.292 30.9647C115.833 30.104 115.225 29.4482 114.468 28.9974C113.711 28.5466 112.893 28.3211 112.017 28.3211C111.14 28.3211 110.322 28.5466 109.565 28.9974C108.808 29.4277 108.19 30.0732 107.712 30.9339C107.253 31.7741 107.024 32.7782 107.024 33.9463C107.024 35.1144 107.253 36.139 107.712 37.0202C108.19 37.9013 108.808 38.5776 109.565 39.0489C110.342 39.4998 111.16 39.7252 112.017 39.7252C112.893 39.7252 113.711 39.4998 114.468 39.0489C115.225 38.5981 115.833 37.9423 116.292 37.0816C116.77 36.2005 117.009 35.1759 117.009 34.0078Z" fill="black"/>
<path d="M128.899 28.4134V37.7886C128.899 38.4239 129.039 38.885 129.318 39.1719C129.617 39.4383 130.115 39.5715 130.813 39.5715H132.905V42.4916H130.215C128.68 42.4916 127.504 42.1228 126.687 41.3851C125.87 40.6473 125.461 39.4485 125.461 37.7886V28.4134H123.518V25.5547H125.461V21.3435H128.899V25.5547H132.905V28.4134H128.899Z" fill="black"/>
<path d="M137.78 23.3107C137.163 23.3107 136.644 23.0956 136.226 22.6652C135.807 22.2349 135.598 21.7021 135.598 21.0668C135.598 20.4316 135.807 19.8988 136.226 19.4684C136.644 19.0381 137.163 18.8229 137.78 18.8229C138.378 18.8229 138.887 19.0381 139.305 19.4684C139.724 19.8988 139.933 20.4316 139.933 21.0668C139.933 21.7021 139.724 22.2349 139.305 22.6652C138.887 23.0956 138.378 23.3107 137.78 23.3107ZM139.455 25.5547V42.4916H136.046V25.5547H139.455Z" fill="black"/>
<path d="M150.297 39.3563L154.96 25.5547H158.578L152.3 42.4916H148.234L141.986 25.5547H145.633L150.297 39.3563Z" fill="black"/>
<path d="M176.251 33.6082C176.251 34.2434 176.211 34.8172 176.131 35.3295H163.545C163.645 36.682 164.133 37.7681 165.01 38.5878C165.887 39.4075 166.963 39.8174 168.239 39.8174C170.073 39.8174 171.368 39.0284 172.125 37.4505H175.802C175.304 39.0079 174.397 40.2887 173.082 41.2928C171.787 42.2765 170.172 42.7683 168.239 42.7683C166.665 42.7683 165.249 42.4097 163.994 41.6924C162.758 40.9547 161.782 39.9301 161.064 38.6186C160.367 37.2866 160.018 35.7496 160.018 34.0078C160.018 32.2659 160.357 30.7392 161.034 29.4277C161.732 28.0957 162.698 27.0711 163.934 26.3539C165.19 25.6366 166.625 25.278 168.239 25.278C169.794 25.278 171.179 25.6264 172.394 26.3231C173.61 27.0199 174.557 28.0035 175.234 29.274C175.912 30.5241 176.251 31.9688 176.251 33.6082ZM172.693 32.5016C172.673 31.2106 172.225 30.1757 171.348 29.397C170.471 28.6183 169.385 28.2289 168.09 28.2289C166.914 28.2289 165.907 28.6183 165.07 29.397C164.233 30.1552 163.735 31.1901 163.575 32.5016H172.693Z" fill="black"/>
<path d="M89.0259 54.0391C89.0259 53.3859 89.1529 52.8134 89.407 52.3216C89.6686 51.8221 90.0274 51.4379 90.4833 51.1689C90.9392 50.8999 91.4623 50.7655 92.0528 50.7655C92.8002 50.7655 93.4167 50.9499 93.9025 51.3187C94.3958 51.6799 94.7284 52.1986 94.9003 52.8749H93.5214C93.4093 52.5598 93.2299 52.3139 92.9833 52.1372C92.7366 51.9604 92.4265 51.872 92.0528 51.872C91.5296 51.872 91.1111 52.0642 90.7972 52.4484C90.4907 52.8249 90.3375 53.3552 90.3375 54.0391C90.3375 54.723 90.4907 55.2571 90.7972 55.6414C91.1111 56.0256 91.5296 56.2177 92.0528 56.2177C92.7927 56.2177 93.2822 55.8834 93.5214 55.2149H94.9003C94.7209 55.8604 94.3846 56.3752 93.8913 56.7595C93.3981 57.136 92.7852 57.3243 92.0528 57.3243C91.4623 57.3243 90.9392 57.1898 90.4833 56.9209C90.0274 56.6442 89.6686 56.26 89.407 55.7682C89.1529 55.2687 89.0259 54.6923 89.0259 54.0391Z" fill="black"/>
<path d="M99.1112 54.0161C99.1112 53.3782 99.2382 52.8134 99.4923 52.3216C99.7539 51.8298 100.105 51.4494 100.546 51.1804C100.995 50.9038 101.488 50.7655 102.026 50.7655C102.512 50.7655 102.934 50.8654 103.293 51.0652C103.659 51.2573 103.95 51.4993 104.167 51.7914V50.8692H105.456V57.2206H104.167V56.2753C103.95 56.5751 103.655 56.8248 103.282 57.0246C102.908 57.2244 102.482 57.3243 102.004 57.3243C101.473 57.3243 100.987 57.186 100.546 56.9093C100.105 56.625 99.7539 56.2331 99.4923 55.7336C99.2382 55.2264 99.1112 54.6539 99.1112 54.0161ZM104.167 54.0391C104.167 53.6011 104.078 53.2207 103.898 52.8979C103.726 52.5752 103.498 52.3293 103.214 52.1602C102.93 51.9912 102.624 51.9066 102.295 51.9066C101.966 51.9066 101.66 51.9912 101.376 52.1602C101.092 52.3216 100.86 52.5637 100.681 52.8864C100.509 53.2015 100.423 53.578 100.423 54.0161C100.423 54.4541 100.509 54.8383 100.681 55.1688C100.86 55.4992 101.092 55.7528 101.376 55.9295C101.667 56.0986 101.974 56.1831 102.295 56.1831C102.624 56.1831 102.93 56.0986 103.214 55.9295C103.498 55.7605 103.726 55.5146 103.898 55.1918C104.078 54.8614 104.167 54.4771 104.167 54.0391Z" fill="black"/>
<path d="M113.615 50.7655C114.101 50.7655 114.534 50.8692 114.915 51.0767C115.304 51.2842 115.607 51.5916 115.823 51.9988C116.04 52.4061 116.148 52.8979 116.148 53.4743V57.2206H114.882V53.6702C114.882 53.1016 114.743 52.6674 114.467 52.3677C114.19 52.0603 113.813 51.9066 113.335 51.9066C112.856 51.9066 112.475 52.0603 112.191 52.3677C111.915 52.6674 111.776 53.1016 111.776 53.6702V57.2206H110.498V50.8692H111.776V51.5954C111.986 51.3341 112.251 51.1305 112.572 50.9845C112.901 50.8385 113.249 50.7655 113.615 50.7655Z" fill="black"/>
<path d="M123.821 57.3243C123.238 57.3243 122.711 57.1898 122.241 56.9209C121.77 56.6442 121.4 56.26 121.131 55.7682C120.862 55.2687 120.727 54.6923 120.727 54.0391C120.727 53.3936 120.865 52.8211 121.142 52.3216C121.418 51.8221 121.796 51.4379 122.274 51.1689C122.753 50.8999 123.287 50.7655 123.877 50.7655C124.468 50.7655 125.002 50.8999 125.48 51.1689C125.959 51.4379 126.336 51.8221 126.613 52.3216C126.889 52.8211 127.028 53.3936 127.028 54.0391C127.028 54.6846 126.886 55.2571 126.602 55.7566C126.318 56.2561 125.929 56.6442 125.436 56.9209C124.95 57.1898 124.412 57.3243 123.821 57.3243ZM123.821 56.1831C124.15 56.1831 124.457 56.1024 124.741 55.9411C125.032 55.7797 125.267 55.5376 125.447 55.2149C125.626 54.8921 125.716 54.5002 125.716 54.0391C125.716 53.578 125.63 53.19 125.458 52.8749C125.286 52.5521 125.058 52.3101 124.774 52.1487C124.49 51.9873 124.184 51.9066 123.855 51.9066C123.526 51.9066 123.22 51.9873 122.936 52.1487C122.659 52.3101 122.439 52.5521 122.274 52.8749C122.11 53.19 122.028 53.578 122.028 54.0391C122.028 54.723 122.196 55.2533 122.532 55.6298C122.876 55.9987 123.306 56.1831 123.821 56.1831Z" fill="black"/>
<path d="M134.771 50.7655C135.257 50.7655 135.69 50.8692 136.071 51.0767C136.46 51.2842 136.762 51.5916 136.979 51.9988C137.196 52.4061 137.304 52.8979 137.304 53.4743V57.2206H136.038V53.6702C136.038 53.1016 135.899 52.6674 135.623 52.3677C135.346 52.0603 134.969 51.9066 134.49 51.9066C134.012 51.9066 133.631 52.0603 133.347 52.3677C133.07 52.6674 132.932 53.1016 132.932 53.6702V57.2206H131.654V50.8692H132.932V51.5954C133.141 51.3341 133.407 51.1305 133.728 50.9845C134.057 50.8385 134.404 50.7655 134.771 50.7655Z" fill="black"/>
</svg>
